<svg height="74" viewBox="0 0 283 74" width="283" xmlns="http://www.w3.org/2000/svg"><g fill="#cf1c5a"><path d="m128.819126 38.2745902-19.29194-30.34904375h-14.5366122l-1.1598361 58.33975405h14.4979513l.386612-28.1840163 20.993032 28.1840163h15.077869v-58.33975405h-14.80724z"/><path d="m171.153142 21.8435792c-13.492759 0-23.080738 10.0519126-23.080738 22.4621585 0 12.3715847 9.587979 22.3848361 23.080738 22.3848361 13.570082 0 23.15806-9.9745902 23.15806-22.3848361s-9.897268-22.4621585-23.15806-22.4621585zm7.500273 28.6479509c-3.440847 0-6.263114-2.7449454-6.263114-6.2631148 0-3.4795082 2.822267-6.2631148 6.263114-6.2631148s6.263115 2.7449454 6.263115 6.2631148c-.038661 3.4795082-2.860929 6.2631148-6.263115 6.2631148z"/><path d="m238.384973 22.7327869h-15.812432l-12.448907 13.5314208v-33.36461754h-13.338115v62.97909834h13.338115v-9.5106557l5.412568-6.0311476 9.935929 15.5418033h15.967077l-16.315028-24.5498634z"/><path d="m259.687295 21.8435792c-13.492759 0-23.080738 10.0519126-23.080738 22.4621585 0 12.3715847 9.587979 22.3848361 23.080738 22.3848361 13.570082 0 23.15806-9.9745902 23.15806-22.3848361s-9.897268-22.4621585-23.15806-22.4621585zm8.853415 28.6479509c-3.440847 0-6.263114-2.7449454-6.263114-6.2631148 0-3.4795082 2.822267-6.2631148 6.263114-6.2631148s6.263115 2.7449454 6.263115 6.2631148c-.038661 3.4795082-2.860929 6.2631148-6.263115 6.2631148z"/><path d="m45.0789617 11.3277322c-1.1984972-5.25792346-5.2579234-9.31734969-10.5158469-10.55450816-11.4050547-2.66762295-21.3023225 8.31215847-16.624317 19.91051916 1.3144809 3.2862022 3.9821038 5.9538251 7.268306 7.268306 11.5596995 4.6780054 22.5394809-5.2192623 19.8718579-16.624317z"/><path d="m62.4378415 24.4338798c-9.7039617 0-17.5521858 7.848224-17.5521858 17.5521858 0 9.7039617 7.8482241 17.5521858 17.5521858 17.5521858 9.7039618 0 17.5521858-7.8482241 17.5521858-17.5521858 0-9.7039618-7.848224-17.5521858-17.5521858-17.5521858z"/><path d="m20.0265027 33.2872951c-11.05710379 0-20.0265027 8.9693989-20.0265027 20.0265027s8.96939891 20.0265027 20.0265027 20.0265027c11.0571039 0 20.0265028-8.9693989 20.0265028-20.0265027s-8.9693989-20.0265027-20.0265028-20.0265027z"/></g></svg>