<svg fill="none" height="179" viewBox="0 0 191 179" width="191" xmlns="http://www.w3.org/2000/svg"><g stroke-linecap="round" stroke-width="6.81337"><path d="m3.40669-3.40669h11.72091" stroke="#fa458f" transform="matrix(.937464 .348081 -.386557 .922265 160.044 162.592)"/><path d="m3.40669-3.40669h12.42321" stroke="#f7675b" transform="matrix(.936386 .350972 -.389663 .920957 159.407 93.877)"/><path d="m126.623 53.541 9.724 13.8031" stroke="#fa458f"/><path d="m76.3567 70.3013 11.2201 14.4982" stroke="#fa458f"/><path d="m128.249 135.769-8.559 14.647" stroke="#ff15d3"/><path d="m80.5226 138.588 14.1078-.3" stroke="#f49514"/><path d="m22.6813 126.302 9.7237-8.252" stroke="#f7675b"/><path d="m19.436 72.9583 7.1583 8.9343" stroke="#ff15d3"/><path d="m3.53137 41.6687 11.95533-.6016" stroke="#fa458f"/><path d="m168.122 45.8662 14.665-9.9022" stroke="#fa458f"/><path d="m63.2282 10.4587 14.3469-.3" stroke="#fa458f"/><path d="m3.40669-3.40669h10.25821" stroke="#f7675b" transform="matrix(.831038 -.556216 .602823 .797875 149.204 151.49)"/><path d="m3.40669-3.40669h11.15301" stroke="#f49514" transform="matrix(.919757 .392488 -.433983 .900921 126.622 112.782)"/><path d="m3.40669-3.40669h6.66841" stroke="#f7675b" transform="matrix(.937959 .346747 -.385123 .922865 175.454 55.7688)"/><path d="m3.40669-3.40669h5.60089" stroke="#f49514" transform="matrix(.616347 .787475 -.821789 .569792 92.2963 43.7664)"/><path d="m3.40669-3.40669h6.76471" stroke="#f7675b" transform="matrix(.950935 .309391 -.344756 .938692 73.8055 26.9624)"/><path d="m3.40669-3.40669h6.44138" stroke="#ff15d3" transform="matrix(-.457001 .889466 -.910159 -.414259 55.9515 46.2539)"/><path d="m3.40669-3.40669h10.68981" stroke="#f7675b" transform="matrix(.865187 -.501449 .54749 .836812 53.082 106.03)"/><path d="m3.40669-3.40669h7.27641" stroke="#f49514" transform="matrix(-.079194 .996859 -.997533 -.0702027 1.11584 107.605)"/><path d="m3.40669-3.40669h7.58381" stroke="#fa458f" transform="matrix(.636643 .771159 -.807171 .590318 60.6544 148.04)"/><path d="m3.40669-3.40669h4.86251" stroke="#f7675b" transform="matrix(.587061 .809542 -.84135 .540491 29.6494 169.044)"/><path d="m3.40669-3.40669h6.27848" stroke="#ff15d3" transform="matrix(-.140453 .990087 -.992196 -.124688 123.006 159.796)"/><path d="m3.40669-3.40669h10.54011" stroke="#f49514" transform="matrix(.99211 -.125368 .141217 .989979 62.3282 173.77)"/><path d="m3.40669-3.40669h5.98492" stroke="#fa458f" transform="matrix(-.0843636 .996435 -.997199 -.0747922 23.2211 148.039)"/><path d="m3.40669-3.40669h9.99021" stroke="#fa458f" transform="matrix(.996099 -.0882425 .0995054 .995037 53.0825 127.784)"/><path d="m3.40669-3.40669h4.19982" stroke="#f7675b" transform="matrix(.173689 .984801 -.988014 .154367 105.208 134.493)"/><path d="m3.40669-3.40669h4.72322" stroke="#f7675b" transform="matrix(-.151992 .988382 -.990848 -.13498 136.346 87.7251)"/><path d="m3.40669-3.40669h10.04941" stroke="#f49514" transform="matrix(-.794064 .607834 -.653819 -.756651 115.569 77.4756)"/><path d="m3.40669-3.40669h4.65685" stroke="#f7675b" transform="matrix(.945022 -.327007 .363841 .931461 103.455 67.3438)"/><path d="m3.40669-3.40669h5.55213" stroke="#f7675b" transform="matrix(.910944 .41253 -.455178 .8904 135.47 47.0459)"/><path d="m3.40669-3.40669h10.29301" stroke="#fa458f" transform="matrix(.959807 -.28066 .313452 .949604 47.9813 35.9639)"/><path d="m3.40669-3.40669h8.75411" stroke="#ff15d3" transform="matrix(-.808936 .587897 -.634259 -.773121 106.244 0)"/><path d="m3.40669-3.40669h5.35736" stroke="#ff15d3" transform="matrix(.65208 .75815 -.795423 .606055 115.017 9.09375)"/><path d="m3.40669-3.40669h8.41861" stroke="#f49514" transform="matrix(.989024 -.147758 .166297 .986076 153.349 23.0605)"/><path d="m3.40669-3.40669h11.18521" stroke="#f7675b" transform="matrix(.976231 .216732 -.243095 .970003 21.3247 23.0605)"/><path d="m3.40669-3.40669h3.75045" stroke="#f49514" transform="matrix(.378955 .925415 -.940058 .341015 30.1097 43.7649)"/><g stroke="#f7675b"><path d="m3.40669-3.40669h4.95814" transform="matrix(.835836 -.548979 .593663 .804714 8.84766 95.4521)"/><path d="m3.40669-3.40669h4.50892" transform="matrix(.999649 -.0265035 .0299153 .999552 137.169 173.845)"/><path d="m3.40669-3.40669h9.70091" transform="matrix(.974913 .222584 -.249572 .968356 84.2462 163.98)"/><path d="m3.40669-3.40669h5.40835" transform="matrix(.945606 .325314 -.36201 .932174 37.4606 142.038)"/></g><path d="m3.40669-3.40669h7.90811" stroke="#ff15d3" transform="matrix(.617378 .786667 -.819728 .572753 2.19751 149.183)"/><path d="m3.40669-3.40669h4.59285" stroke="#f49514" transform="matrix(.999221 -.0394603 .0445349 .999008 23.3533 108.88)"/><path d="m3.40669-3.40669h9.55691" stroke="#f7675b" transform="matrix(.993154 -.116809 .131613 .991301 47.3438 81.291)"/><path d="m3.40669-3.40669h4.75094" stroke="#f7675b" transform="matrix(.771921 -.635719 .680879 .732396 73.0397 62.2949)"/><path d="m3.40669-3.40669h4.25294" stroke="#f7675b" transform="matrix(.857075 .515192 -.56149 .827483 75.5588 109.406)"/><path d="m3.40669-3.40669h7.81531" stroke="#ff15d3" transform="matrix(.585068 .810984 -.84262 .538509 97.2777 109.344)"/><path d="m3.40669-3.40669h9.49241" stroke="#f49514" transform="matrix(-.948277 -.317444 .353491 -.935438 164.188 68.7695)"/><path d="m3.40669-3.40669h5.16861" stroke="#f49514" transform="matrix(-.0953074 .995448 -.996422 -.0845123 132.626 20.8103)"/><path d="m3.40669-3.40669h10.97231" stroke="#f7675b" transform="matrix(-.994954 -.100334 .113105 -.993583 119.156 28.7463)"/><path d="m3.40669-3.40669h9.17171" stroke="#f7675b" transform="matrix(-.13961 .990207 -.99229 -.123936 184.367 1.7561)"/><path d="m3.40669-3.40669h6.08557" stroke="#f7675b" transform="matrix(.996949 -.0780581 .0880415 .996117 169.927 134.493)"/><path d="m3.40669-3.40669h4.8737" stroke="#f49514" transform="matrix(.825191 -.564854 .611436 .791294 168.731 119.833)"/><path d="m3.40669-3.40669h9.04851" stroke="#ff15d3" transform="matrix(-.181495 .983392 -.986897 -.161353 182.528 74.2668)"/><path d="m3.40669-3.40669h4.36818" stroke="#ff15d3" transform="matrix(.8597 -.510799 .557023 .830497 10.8345 21.6855)"/><path d="m51.388 4.33784v3.68899" stroke="#f49514"/></g></svg>